<?xml version="1.0" encoding="UTF-8" standalone="no"?>
<!-- Created with Inkscape (http://www.inkscape.org/) -->

<svg
   width="210mm"
   height="297mm"
   viewBox="0 0 210 297"
   version="1.1"
   id="svg19"
   inkscape:version="1.1.1 (3bf5ae0d25, 2021-09-20)"
   sodipodi:docname="iconSVG.svg"
   inkscape:export-filename="E:\Libraries\bitWolfy\Development\com.bitwolfy.re621\re621\assets\icon32.png"
   inkscape:export-xdpi="6.0235305"
   inkscape:export-ydpi="6.0235305"
   xmlns:inkscape="http://www.inkscape.org/namespaces/inkscape"
   xmlns:sodipodi="http://sodipodi.sourceforge.net/DTD/sodipodi-0.dtd"
   xmlns="http://www.w3.org/2000/svg"
   xmlns:svg="http://www.w3.org/2000/svg">
  <sodipodi:namedview
     id="namedview21"
     pagecolor="#000000"
     bordercolor="#666666"
     borderopacity="1.0"
     inkscape:pageshadow="2"
     inkscape:pageopacity="0"
     inkscape:pagecheckerboard="true"
     inkscape:document-units="mm"
     showgrid="false"
     inkscape:zoom="1.4414001"
     inkscape:cx="397.87703"
     inkscape:cy="585.1949"
     inkscape:window-width="1920"
     inkscape:window-height="1017"
     inkscape:window-x="1912"
     inkscape:window-y="-8"
     inkscape:window-maximized="1"
     inkscape:current-layer="layer4" />
  <defs
     id="defs16" />
  <g
     inkscape:groupmode="layer"
     id="layer4"
     inkscape:label="shadow"
     style="display:inline">
    <path
       style="fill:#ffffff;stroke-width:0.268959"
       d="m 45.289045,211.12769 c -6.556247,-10.07513 -6.815,-10.52267 -6.760563,-11.69332 0.149273,-3.2103 3.34484,-52.08068 3.410067,-52.15078 0.04112,-0.0442 4.317063,-2.02052 9.502124,-4.39187 5.185056,-2.37134 9.612095,-4.46532 9.837863,-4.65332 0.225767,-0.18801 9.528718,-10.63881 20.673221,-23.22399 L 102.21442,92.13223 c 2.82015,-1.818247 5.64035,-3.636488 8.46055,-5.45473 l 0.13366,22.22707 0.13376,22.22703 11.97466,-14.92295 11.97461,-14.92295 c 2.26984,-0.41765 4.70745,-0.98408 8.00949,-1.61537 0,0.45496 -12.88104,45.78793 -13.06854,45.99286 -0.0968,0.10601 -4.29275,-1.68942 -9.32389,-3.98982 -5.03118,-2.30038 -9.28072,-4.18253 -9.44347,-4.18253 -0.16271,0 -0.25636,0.20747 -0.20807,0.46104 0.0613,0.32271 5.82545,3.07541 19.20826,9.17334 l 19.12049,8.71228 1.06976,10.4266 c 0.58833,5.73464 1.19006,10.53826 1.33716,10.67468 0.14709,0.13645 5.02115,2.82011 10.83123,5.96369 5.81007,3.14357 10.71448,5.81343 10.89864,5.93301 0.26501,0.17205 0.16813,2.07254 -0.46446,9.11036 -0.43961,4.89109 -0.89116,8.97319 -1.00346,9.07133 -0.11226,0.0981 -5.74949,3.42279 -12.52716,7.38811 l -12.32308,7.2097 -47.449151,-0.005 -47.449206,-0.005 z m 19.329405,7.16747 c 3.092384,-1.43194 4.723727,-3.85323 4.944931,-7.33946 0.181163,-2.85521 -0.419988,-4.72917 -2.044016,-6.37177 -1.917471,-1.93939 -5.34541,-2.84592 -8.320933,-2.20049 -0.781204,0.16945 -1.476712,0.25112 -1.545571,0.18147 -0.244676,-0.24748 1.057979,-2.04925 2.246774,-3.10763 1.415102,-1.25986 3.727001,-2.12077 6.364029,-2.36985 l 1.819707,-0.17188 -0.163711,-1.37792 c -0.09005,-0.75786 -0.164754,-1.78589 -0.166032,-2.28451 l -0.0024,-0.90657 -1.938924,0.19606 c -9.512654,0.9619 -14.746596,6.90289 -14.292917,16.22384 0.154499,3.17419 0.658989,4.99986 1.880397,6.80484 0.980256,1.44863 3.08541,2.89442 4.833515,3.31961 1.773723,0.43142 4.77078,0.15179 6.385159,-0.59576 z m -5.92029,-4.39697 c -1.091706,-0.92911 -1.695333,-2.67134 -1.740491,-5.02352 l -0.03761,-1.95793 0.936032,-0.25074 c 0.514817,-0.13791 1.750091,-0.20453 2.745051,-0.14806 1.608344,0.0913 1.903016,0.19776 2.656381,0.95973 0.717787,0.726 0.864857,1.10169 0.961769,2.4568 0.20228,2.82847 -1.205242,4.64449 -3.601445,4.64665 -0.804656,8e-4 -1.340332,-0.18985 -1.919709,-0.68293 z m 31.517902,2.44216 v -2.29921 h -5.482471 c -3.01536,0 -5.482472,-0.10006 -5.482472,-0.22234 0,-0.35605 2.925635,-3.63573 4.747911,-5.32249 2.148332,-1.98856 4.201417,-4.75243 4.880417,-6.57001 1.415556,-3.78923 -0.212903,-7.94516 -3.618168,-9.23381 -3.921852,-1.48413 -8.830212,-0.66823 -12.01633,1.99743 l -0.79114,0.66191 1.28674,1.90475 c 0.781684,1.15712 1.407127,1.83314 1.593449,1.72232 0.168692,-0.10027 0.67602,-0.46255 1.127392,-0.8049 2.406071,-1.82499 6.121991,-1.88133 7.060806,-0.10708 0.463464,0.87589 0.31914,2.77805 -0.28847,3.80192 -0.309009,0.52071 -2.095552,2.46826 -3.970085,4.32793 -4.907691,4.86872 -5.844494,6.43889 -6.092354,10.21121 l -0.146626,2.23159 h 8.595701 8.5957 z m 16.848468,-10.68458 v -12.98378 h -1.95914 c -1.76167,0 -2.02452,0.0706 -2.60757,0.69945 -0.9133,0.98533 -3.873543,2.93363 -5.952335,3.91755 l -1.759618,0.83284 0.553139,1.40013 c 0.304223,0.77008 0.669485,1.72822 0.811692,2.1292 0.29715,0.83791 0.399471,0.81758 3.425631,-0.68019 0.956011,-0.4732 1.828521,-0.90093 1.938821,-0.95053 0.11031,-0.0496 0.2006,4.11943 0.2006,9.26448 v 9.35464 h 2.67438 2.67436 z M 75.57382,185.28588 c -2.00601,-3.84887 -4.955448,-8.64909 -6.627316,-10.78597 -0.491209,-0.62784 -0.832214,-1.24117 -0.757792,-1.36296 0.07444,-0.12181 0.713386,-0.51773 1.419911,-0.87986 1.543994,-0.79133 3.5836,-2.79231 4.305914,-4.22434 1.354339,-2.68509 1.681385,-6.39686 0.835487,-9.48232 -1.247752,-4.55124 -4.086419,-7.05896 -9.806813,-8.66354 -1.948808,-0.54663 -2.723502,-0.59904 -8.691726,-0.58794 -4.525398,0.008 -7.172672,0.13193 -8.558002,0.39931 l -2.00578,0.38714 -0.0686,19.53505 -0.0686,19.53507 h 4.41448 4.414476 v -7.16815 -7.16811 h 2.121597 2.121596 l 0.924394,1.14957 c 1.275667,1.58647 4.004501,5.91646 6.217717,9.86601 l 1.852858,3.30646 4.680158,0.0748 c 2.574088,0.0411 4.814495,0.0375 4.978683,-0.008 0.168998,-0.0468 -0.569747,-1.7486 -1.702606,-3.92218 z m -21.133191,-22.84182 0.07248,-5.34228 2.406939,-0.0814 c 4.548116,-0.15369 7.626824,0.83977 8.523203,2.75032 0.670789,1.42976 0.58481,4.19194 -0.166166,5.33825 -1.144206,1.74659 -4.149637,2.6711 -8.696986,2.6753 l -2.212014,0.002 z m 56.368021,23.0438 v -3.63573 h -9.36027 -9.360255 v -4.73366 -4.73367 h 7.763165 7.76324 l -0.0742,-3.71933 -0.0742,-3.71932 -7.688785,-0.0718 -7.688764,-0.0718 v -3.7791 -3.77908 l 8.758459,-0.0714 8.7586,-0.0714 0.0752,-3.34316 c 0.0502,-2.23384 -0.0271,-3.46799 -0.23327,-3.71931 -0.2558,-0.31174 -2.52486,-0.37616 -13.246543,-0.37616 H 83.262726 v 19.74369 19.7437 l 13.572458,0.0702 c 7.464786,0.0386 13.662626,0.0325 13.772946,-0.0135 0.11033,-0.046 0.20054,-1.71967 0.20054,-3.71931 z m 16.78596,-11.57922 c 0.76575,-2.23079 1.33596,-4.11304 1.26704,-4.1827 -0.0688,-0.0698 -3.04575,-0.52817 -6.61528,-1.01885 -3.56956,-0.49071 -6.89187,-0.95356 -7.38293,-1.02857 -0.66456,-0.10149 -0.85843,-0.0457 -0.75831,0.21817 0.0738,0.19501 2.02044,3.11009 4.32538,6.47801 l 4.19083,6.12344 1.79043,-1.2667 1.79046,-1.26673 z"
       id="path115-5-3"
       sodipodi:nodetypes="cssssscccccccssssscsssssssccccssssssscsccsssssssscsssscssccsssssscsssssssccccccssscssssscccccsssssscscccccccccsscscccccssssccccccccccccccccccsssccccsccsssssscccs" />
  </g>
  <g
     inkscape:groupmode="layer"
     id="layer7"
     inkscape:label="text 2">
    <rect
       style="fill:#efb64b;fill-opacity:1;stroke-width:0.264583"
       id="rect1810"
       width="60.345505"
       height="26.988993"
       x="51.258942"
       y="191.35823" />
  </g>
  <g
     inkscape:groupmode="layer"
     id="layer6"
     inkscape:label="text">
    <rect
       style="fill:#ffffff;fill-opacity:1;stroke-width:0.264583"
       id="rect1807"
       width="65.136147"
       height="40.471958"
       x="45.550503"
       y="148.68356" />
  </g>
  <g
     inkscape:groupmode="layer"
     id="layer5"
     inkscape:label="eye"
     style="display:inline">
    <rect
       style="fill:#ffffff;stroke-width:0.264583"
       id="rect921"
       width="20.558708"
       height="15.235481"
       x="112.15513"
       y="166.856" />
  </g>
  <g
     inkscape:groupmode="layer"
     id="layer2"
     inkscape:label="base"
     style="display:inline">
    <path
       style="fill:#152f56;stroke-width:0.263687;fill-opacity:1"
       d="m 46.320547,210.6454 c -6.42769,-9.87758 -6.681367,-10.31635 -6.628,-11.46403 0.146348,-3.14735 3.279254,-51.05946 3.3432,-51.12819 0.0403,-0.0433 4.23242,-1.9809 9.315808,-4.30575 5.083391,-2.32484 9.423623,-4.37777 9.644966,-4.56208 0.221341,-0.18431 9.341881,-10.43019 20.267862,-22.76862 L 102.12981,93.98319 c 2.76488,-1.782595 5.52977,-3.565183 8.29465,-5.347773 l 0.13109,21.791263 0.1311,21.79123 11.73985,-14.63035 11.73986,-14.63036 c 2.22533,-0.40947 4.61516,-0.9648 7.85244,-1.58368 0,0.44604 -12.62844,44.89013 -12.81227,45.09104 -0.0951,0.10393 -4.20858,-1.65629 -9.14111,-3.91157 -4.93252,-2.2553 -9.09875,-4.10054 -9.25827,-4.10054 -0.15952,0 -0.25131,0.2034 -0.20398,0.45201 0.0603,0.31637 5.71119,3.0151 18.83163,8.99345 l 18.74556,8.54146 1.04877,10.22215 c 0.57682,5.62219 1.16676,10.33162 1.31097,10.46539 0.14422,0.13376 4.92269,2.7648 10.61885,5.84673 5.69615,3.08193 10.50438,5.69944 10.68495,5.81668 0.25981,0.16869 0.16482,2.0319 -0.45536,8.93171 -0.43101,4.7952 -0.87372,8.79726 -0.98379,8.89347 -0.11006,0.0962 -5.63676,3.35567 -12.28155,7.24325 l -12.08142,7.06833 -46.518869,-0.005 -46.518873,-0.005 z m 18.9504,7.02693 c 3.031749,-1.40386 4.631104,-3.77768 4.84797,-7.19555 0.177613,-2.79922 -0.411751,-4.63644 -2.003937,-6.24682 -1.879873,-1.90138 -5.240599,-2.79012 -8.157776,-2.15735 -0.765888,0.16613 -1.447758,0.24619 -1.515267,0.1779 -0.239877,-0.24261 1.037235,-2.00906 2.202721,-3.04668 1.387353,-1.23517 3.653919,-2.07919 6.239242,-2.32337 l 1.784026,-0.16851 -0.1605,-1.35091 c -0.08827,-0.74301 -0.161523,-1.75087 -0.162777,-2.2397 l -0.0024,-0.88879 -1.900905,0.19222 c -9.326132,0.94303 -14.457446,6.76752 -14.012663,15.90571 0.151469,3.11195 0.646066,4.90181 1.843526,6.6714 0.961036,1.42021 3.02491,2.83766 4.73874,3.25451 1.738942,0.42297 4.677235,0.14882 6.259959,-0.58406 z m -5.804208,-4.31075 c -1.070299,-0.91089 -1.66209,-2.61897 -1.706362,-4.92502 l -0.03686,-1.91954 0.917676,-0.24583 c 0.504724,-0.1352 1.715776,-0.20052 2.691228,-0.14515 1.576807,0.0895 1.865701,0.19388 2.604294,0.94092 0.703713,0.71176 0.847898,1.08007 0.942909,2.40861 0.198317,2.77301 -1.181607,4.55341 -3.530827,4.55554 -0.788878,7.9e-4 -1.314051,-0.18611 -1.882067,-0.66953 z m 30.899904,2.39427 v -2.25413 h -5.374971 c -2.956233,0 -5.374971,-0.0981 -5.374971,-0.21798 0,-0.34907 2.868268,-3.56444 4.654814,-5.21812 2.106208,-1.94957 4.119036,-4.65925 4.78472,-6.44118 1.387799,-3.71493 -0.208726,-7.78939 -3.547223,-9.05276 -3.844954,-1.45503 -8.657068,-0.65513 -11.780715,1.95826 l -0.775628,0.64894 1.261509,1.86739 c 0.766359,1.13443 1.379538,1.7972 1.562209,1.68855 0.165383,-0.0983 0.662762,-0.45348 1.105285,-0.78913 2.358893,-1.78919 6.00195,-1.84443 6.922357,-0.10497 0.454376,0.85872 0.312884,2.72357 -0.282813,3.72737 -0.302951,0.51049 -2.054462,2.41987 -3.892243,4.24307 -4.811459,4.77326 -5.729893,6.31263 -5.972891,10.01098 l -0.143753,2.18784 h 8.427157 8.427157 z m 16.518197,-10.47507 v -12.72921 h -1.92074 c -1.72714,0 -1.98483,0.0692 -2.5564,0.68574 -0.89542,0.96601 -3.797709,2.87612 -5.835741,3.84074 l -1.725115,0.8165 0.542293,1.37268 c 0.298259,0.75498 0.656358,1.69434 0.795776,2.08746 0.291324,0.82147 0.391639,0.80155 3.358514,-0.66685 0.937333,-0.46392 1.792743,-0.88327 1.900903,-0.9319 0.10815,-0.0486 0.19664,4.03865 0.19664,9.08282 v 9.17122 h 2.62194 2.62193 z M 76.011506,185.31033 c -1.966679,-3.7734 -4.858285,-8.4795 -6.497369,-10.57449 -0.481578,-0.61553 -0.815896,-1.21683 -0.742933,-1.33624 0.07296,-0.11942 0.699396,-0.50758 1.392069,-0.8626 1.51372,-0.77584 3.513334,-2.73757 4.221483,-4.14152 1.327783,-2.63245 1.648418,-6.27144 0.819104,-9.29638 -1.223285,-4.462 -4.006292,-6.92056 -9.614522,-8.49366 -1.910595,-0.53592 -2.6701,-0.5873 -8.521297,-0.57641 -4.436668,0.008 -7.032035,0.12935 -8.390199,0.39148 l -1.966454,0.37955 -0.06728,19.15201 -0.06728,19.15201 h 4.327922 4.327919 v -7.02759 -7.02757 h 2.079996 2.079996 l 0.906269,1.12706 c 1.250653,1.55535 3.92598,5.80044 6.0958,9.67253 l 1.816529,3.24164 4.588388,0.0733 c 2.523617,0.0403 4.720093,0.0368 4.881062,-0.008 0.165686,-0.0459 -0.558574,-1.71432 -1.669219,-3.84528 z m -20.718816,-22.39394 0.07109,-5.23754 2.359744,-0.0798 c 4.458936,-0.1507 7.477276,0.82329 8.356078,2.69641 0.657639,1.40171 0.573346,4.10973 -0.162906,5.23357 -1.121771,1.71235 -4.068271,2.61872 -8.526458,2.62284 l -2.168641,0.002 z m 55.26286,22.59195 V 181.9439 H 101.37877 92.202 v -4.64086 -4.64086 h 7.61102 7.61101 l -0.0729,-3.64638 -0.0729,-3.64639 -7.53807,-0.0703 -7.538071,-0.0704 v -3.705 -3.70498 l 8.586841,-0.07 8.58685,-0.07 0.0738,-3.2776 c 0.0494,-2.19004 -0.0265,-3.39998 -0.22876,-3.64639 -0.25077,-0.30561 -2.4753,-0.36878 -12.986881,-0.36878 H 83.549606 v 19.35656 19.35658 l 13.306332,0.0688 c 7.318472,0.0378 13.394812,0.0319 13.502962,-0.0132 0.10817,-0.0451 0.19665,-1.68595 0.19665,-3.64638 z m 16.4568,-11.35218 c 0.75078,-2.18708 1.30979,-4.0324 1.24225,-4.10071 -0.0676,-0.0684 -2.98607,-0.5178 -6.48562,-0.99887 -3.49957,-0.48107 -6.75673,-0.93485 -7.23814,-1.00839 -0.65152,-0.0995 -0.84158,-0.0448 -0.74341,0.21389 0.0724,0.19118 1.98076,3.04912 4.24053,6.35098 l 4.10866,6.00339 1.75533,-1.24189 1.75535,-1.24189 z"
       id="path115-5"
       sodipodi:nodetypes="cssssscccccccssssscsssssssccccssssssscsccsssssssscsssscssccsssssscsssssssccccccssscssssscccccsssssscscccccccccsscscccccssssccccccccccccccccccsssccccsccsssssscccs" />
  </g>
</svg>
